<?xml version="1.0" encoding="UTF-8"?>
<svg width="512" height="512" viewBox="0 0 512 512" fill="none" xmlns="http://www.w3.org/2000/svg">
  <rect width="512" height="512" rx="256" fill="url(#gradient)"/>
  <path d="M384 192c0-35.3-28.7-64-64-64H128c-35.3 0-64 28.7-64 64v144c0 17.7 14.3 32 32 32v32c0 17.7 14.3 32 32 32h32c17.7 0 32-14.3 32-32v-32h128v32c0 17.7 14.3 32 32 32h32c17.7 0 32-14.3 32-32v-32c17.7 0 32-14.3 32-32V192zM160 320c-17.7 0-32-14.3-32-32s14.3-32 32-32s32 14.3 32 32s-14.3 32-32 32zm224-32c0 17.7-14.3 32-32 32s-32-14.3-32-32s14.3-32 32-32s32 14.3 32 32zM128 192h192v64H128v-64z" fill="white"/>
  <defs>
    <linearGradient id="gradient" x1="0" y1="0" x2="512" y2="512" gradientUnits="userSpaceOnUse">
      <stop offset="0%" style="stop-color:#166534"/>
      <stop offset="100%" style="stop-color:#22C55E"/>
    </linearGradient>
  </defs>
</svg>
